<svg version="1.1" id="Layer_1" xmlns="http://www.w3.org/2000/svg" xmlns:xlink="http://www.w3.org/1999/xlink" x="0px" y="0px"
	 viewBox="121.762 172.768 351.756 351.899"
	 enable-background="new 121.762 172.768 351.756 351.899" xml:space="preserve">
<path d="M473.518,425.455v85.684c0,7.47-6.062,13.529-13.528,13.529H135.291c-7.47,0-13.529-6.061-13.529-13.529V186.441
	c0-7.468,6.061-13.529,13.529-13.529h85.684c7.469,0,13.529,6.062,13.529,13.529s-6.062,13.528-13.529,13.528H148.82v297.642H446.46
	v-72.156c0-7.468,6.061-13.529,13.528-13.529S473.518,417.987,473.518,425.455z M221.697,294.673l0.723,116.531
	c0.055,7.433,6.098,13.438,13.529,13.438l0,0h115.809c7.468,0,13.528-6.06,13.528-13.527s-6.062-13.529-13.528-13.529h-81.174
	l198.426-201.764c2.418-2.453,3.896-5.808,3.896-9.506c0-7.486-6.061-13.547-13.547-13.547c-3.771,0-7.197,1.551-9.65,4.041
	L249.296,381.007l-0.541-86.315c0-0.036,0-0.055,0-0.09c0-7.378-5.971-13.35-13.35-13.35c-0.091,0-0.197,0-0.288,0
	c-7.396,0.055-13.366,6.043-13.422,13.438L221.697,294.673L221.697,294.673z"/>
</svg>
