<svg version="1.1" id="Layer_1" xmlns:rdf="http://www.w3.org/1999/02/22-rdf-syntax-ns#" xmlns:svg="http://www.w3.org/2000/svg"
	 xmlns="http://www.w3.org/2000/svg" xmlns:xlink="http://www.w3.org/1999/xlink" x="0px" y="0px" viewBox="52.355 102.837 492.157 490.571" enable-background="new 52.355 102.837 492.157 490.571"
	 xml:space="preserve">
<g transform="translate(0,-1028.3622)">
	<path d="M529.512,1621.77H67.355c-8.284,0-15-6.716-15-15v-460.571c0-8.284,6.716-15,15-15h253.318c8.284,0,15,6.716,15,15
		s-6.716,15-15,15H82.355v430.571h432.157v-235.141c0-8.284,6.716-15,15-15s15,6.716,15,15v250.141
		C544.512,1615.054,537.796,1621.77,529.512,1621.77z"/>
	<path d="M297.64,1389.896c-3.839,0-7.677-1.464-10.606-4.394c-5.858-5.858-5.858-15.355,0-21.213l223.23-223.229
		c5.857-5.858,15.355-5.857,21.213,0c5.858,5.858,5.858,15.355,0,21.213l-223.23,223.229
		C305.318,1388.432,301.478,1389.896,297.64,1389.896z"/>
	<path d="M529.512,1293.84c-8.284,0-15-6.716-15-15v-117.641h-117.64c-8.284,0-15-6.716-15-15s6.716-15,15-15h132.64
		c8.284,0,15,6.716,15,15v132.641C544.512,1287.124,537.796,1293.84,529.512,1293.84z"/>
</g>
</svg>
