<?xml version="1.0" encoding="utf-8"?>
<!-- Generator: Adobe Illustrator 16.0.0, SVG Export Plug-In . SVG Version: 6.00 Build 0)  -->
<!DOCTYPE svg PUBLIC "-//W3C//DTD SVG 1.1//EN" "http://www.w3.org/Graphics/SVG/1.1/DTD/svg11.dtd">
<svg version="1.1" id="Layer_1" xmlns="http://www.w3.org/2000/svg" xmlns:xlink="http://www.w3.org/1999/xlink" x="0px" y="0px"
	 width="77.008px" height="75.625px" viewBox="0 0 77.008 75.625" enable-background="new 0 0 77.008 75.625" xml:space="preserve">
<g>
	<path d="M65.093,38.314l7.367-5.006c1.082-0.736,1.178-2.289,0.201-3.154l-7.568-6.688V38.314z"/>
	<path d="M35.86,2.314l-4.157,3.677h13.616l-4.157-3.677C39.648,0.977,37.374,0.977,35.86,2.314z"/>
	<path d="M4.569,33.308l7.369,5.006V23.466L4.37,30.154C3.384,31.019,3.488,32.58,4.569,33.308z"/>
	<path d="M52.679,50.135l19.598,18.934c1.273,1.225,3.396,0.328,3.396-1.441V38.299c0-1.61-1.802-2.563-3.124-1.659L52.679,50.135z"
		/>
	<path d="M4.745,69.068l19.599-18.934L4.474,36.64c-1.33-0.904-3.123,0.049-3.123,1.659v29.328
		C1.351,69.396,3.473,70.293,4.745,69.068z"/>
	<path d="M70.09,70.855L50.308,51.746l-8.762,5.949c-0.921,0.625-1.978,0.938-3.035,0.938c-1.057,0-2.113-0.313-3.035-0.938
		l-8.762-5.949L6.933,70.855c-1.298,1.248-0.409,3.443,1.393,3.443h60.379C70.499,74.289,71.388,72.104,70.09,70.855z"/>
	<path d="M28.981,8.392H18.337c-2.21,0-4.004,1.795-4.004,4.006v8.737v0.208v18.604l0,0l21.759,15.098
		c0.714,0.535,1.562,0.809,2.411,0.809s1.697-0.273,2.41-0.809l21.76-15.098V21.343v-0.208v-8.737c0-2.211-1.793-4.006-4.004-4.006
		H48.042h-1.875H30.854H28.981z M25.056,35.599c0-0.665,0.537-1.201,1.201-1.201h24.508c0.664,0,1.201,0.536,1.201,1.201
		c0,0.664-0.537,1.201-1.201,1.201H26.257C25.593,36.8,25.056,36.263,25.056,35.599z M50.765,23.386
		c0.664,0,1.201,0.535,1.201,1.201c0,0.664-0.537,1.201-1.201,1.201H26.257c-0.664,0-1.201-0.537-1.201-1.201
		c0-0.666,0.537-1.201,1.201-1.201H50.765z"/>
</g>
</svg>
