<?xml version="1.0" encoding="utf-8"?>
<!-- Generator: Adobe Illustrator 16.0.0, SVG Export Plug-In . SVG Version: 6.00 Build 0)  -->
<!DOCTYPE svg PUBLIC "-//W3C//DTD SVG 1.1//EN" "http://www.w3.org/Graphics/SVG/1.1/DTD/svg11.dtd">
<svg version="1.1" xmlns="http://www.w3.org/2000/svg" xmlns:xlink="http://www.w3.org/1999/xlink" x="0px" y="0px"
	 width="291.26px" height="291.26px" viewBox="0 0 291.26 291.26" enable-background="new 0 0 291.26 291.26" xml:space="preserve">
<g id="Layer_1">
	<path fill="#FFFFFF" d="M145.631,0.498c-80.15,0-145.13,64.98-145.13,145.13c0,80.16,64.98,145.13,145.13,145.13
		s145.13-64.97,145.13-145.13C290.762,65.478,225.781,0.498,145.631,0.498z M221.172,154.328c-2.41,2.899-5.551,4.35-9.42,4.35
		l-56.16-2.54c0,26.33,0.97,50.12,2.899,71.38c-3.62,0.73-7.37,1.08-11.229,1.08c-3.87,0-7.31-1.14-10.33-3.439
		c-3.02-2.29-4.53-5.49-4.53-9.601l2.54-59.78c-23.91,0.24-46.38,1.21-67.39,2.9c-0.73-3.63-1.09-7.31-1.09-11.06
		c0-3.73,1.09-7.181,3.26-10.32c2.18-3.14,5.44-4.71,9.79-4.71l55.79,2.54c0-30.92-0.96-54.72-2.9-71.38
		c2.18-0.73,5.62-1.09,10.33-1.09s8.521,1.21,11.42,3.62c2.891,2.42,4.34,5.56,4.34,9.42l-2.529,59.79
		c28.489,0,51.09-0.96,67.75-2.899c0.72,2.17,1.09,5.61,1.09,10.33C224.802,147.618,223.592,151.428,221.172,154.328z"/>
</g>
<g id="Layer_2" display="none">
	<path display="inline" fill="#FFFFFF" d="M145.631,1.498c-80.15,0-145.13,64.98-145.13,145.13c0,80.16,64.98,145.13,145.13,145.13
		s145.13-64.97,145.13-145.13C290.762,66.478,225.781,1.498,145.631,1.498z M231.901,158.428c-3.46,3.87-7.79,5.81-13,5.81
		c-1.689,0-4.229-0.279-7.62-0.85c-3.38-0.56-5.989-0.84-7.819-0.84l-21.33,0.42c-8.59,0.28-15.32,0.28-21.32,0v49.69
		c0,12.689-6.09,19.029-18.64,19.029c-6.2,0-10.8-1.58-13.97-4.75c-3.17-3.18-4.714-7.93-4.714-14.279l-0.188-24.311l-0.199-24.53
		c-17.06,0.98-29.104,1.48-36.154,1.48c-21.851,0-32.778-6.49-32.778-19.46c0-9.16,3.882-14.87,11.632-17.12
		c2.68-0.71,9.731-1.06,21.151-1.06c7.05,0,19.1-0.49,36.16-1.48l-0.209-24.74c0-12.83,0.63-21.71,1.9-26.64
		c1.41-5.08,3.59-8.89,6.55-11.42c2.96-2.54,6.77-3.81,11.42-3.81c5.36,0,9.91,1.73,13.64,5.18c3.74,3.45,5.61,7.86,5.61,13.22
		c0,2.39-0.25,6.2-0.74,11.42c-0.5,5.21-0.739,9.16-0.739,11.84l0.21,24.101l15.859,0.64c2.82,0,7.11-0.18,12.9-0.53
		c5.77-0.35,10.069-0.529,12.89-0.529c23.12,0,34.68,6.619,34.68,19.88C237.081,149.998,235.352,154.548,231.901,158.428z"/>
</g>
<g id="Layer_3" display="none">
	<path display="inline" fill="#FFFFFF" d="M145.631,0.498c-80.15,0-145.13,64.98-145.13,145.13c0,80.16,64.98,145.13,145.13,145.13
		s145.13-64.97,145.13-145.13C290.762,65.478,225.781,0.498,145.631,0.498z M239.812,161.968h-78v78h-33v-78h-77v-33h77v-77h33v77
		h78V161.968z"/>
</g>
</svg>
