<?xml version="1.0" encoding="utf-8"?>
<!-- Generator: Adobe Illustrator 16.0.0, SVG Export Plug-In . SVG Version: 6.00 Build 0)  -->
<!DOCTYPE svg PUBLIC "-//W3C//DTD SVG 1.1//EN" "http://www.w3.org/Graphics/SVG/1.1/DTD/svg11.dtd">
<svg version="1.1" id="Layer_1" xmlns="http://www.w3.org/2000/svg" xmlns:xlink="http://www.w3.org/1999/xlink" x="0px" y="0px"
	 width="119.916px" height="152.279px" viewBox="0 0 119.916 152.279" enable-background="new 0 0 119.916 152.279"
	 xml:space="preserve">
<g display="none">
	<g display="inline">
		<rect x="407.303" y="-37.75" fill="none" width="83.676" height="40.453"/>
		<text transform="matrix(1 0 0 1 407.3013 -10.7305)" font-family="'Overlock-Regular'" font-size="36.3635">-color</text>
	</g>
	<g id="Bee_degradé" display="inline">
		<g>
			
				<linearGradient id="SVGID_1_" gradientUnits="userSpaceOnUse" x1="-442.6372" y1="189.6338" x2="-442.6183" y2="184.9343" gradientTransform="matrix(4.8555 0 0 4.8555 2514.1326 -923.9399)">
				<stop  offset="0.0497" style="stop-color:#926528"/>
				<stop  offset="0.2817" style="stop-color:#A67027"/>
				<stop  offset="0.7547" style="stop-color:#DA8D24"/>
				<stop  offset="1" style="stop-color:#F79D22"/>
			</linearGradient>
			<path fill="url(#SVGID_1_)" d="M357.084-12.793c0.387-2.762,0.582-6.604,0.582-11.526c0-4.92-0.159-8.445-0.475-10.581
				c1.795-0.29,3.867-0.437,6.22-0.437c2.349,0,4.362,0.484,6.034,1.453c1.675,0.971,2.511,2.619,2.511,4.946
				c0,2.328-1.054,3.963-3.165,4.911c2.691,1.139,4.037,3.211,4.037,6.217c0,2.305-0.746,4.096-2.236,5.379
				c-1.49,1.287-3.315,1.929-5.473,1.929C361.604-10.501,358.925-11.263,357.084-12.793z M364.465-12.718
				c1.574,0,2.896-0.443,3.965-1.326c1.066-0.883,1.598-2.135,1.598-3.746s-0.6-2.866-1.798-3.764
				c-1.198-0.896-2.631-1.344-4.29-1.344c-1.661,0-2.855,0.061-3.584,0.182c0,1.938-0.156,4.836-0.473,8.688
				c0.461,0.366,1.133,0.674,2.019,0.928C362.785-12.849,363.641-12.718,364.465-12.718z M362.719-33.119
				c-0.582,0-1.406,0.051-2.473,0.145c0.098,2.037,0.145,4.764,0.145,8.181c0.777,0.05,1.443,0.075,2,0.075
				c4.508,0,6.764-1.381,6.764-4.146C369.157-31.701,367.012-33.119,362.719-33.119z"/>
			
				<linearGradient id="SVGID_2_" gradientUnits="userSpaceOnUse" x1="-438.9243" y1="189.6475" x2="-438.9055" y2="184.9499" gradientTransform="matrix(4.8555 0 0 4.8555 2514.1326 -923.9399)">
				<stop  offset="0.0497" style="stop-color:#926528"/>
				<stop  offset="0.2817" style="stop-color:#A67027"/>
				<stop  offset="0.7547" style="stop-color:#DA8D24"/>
				<stop  offset="1" style="stop-color:#F79D22"/>
			</linearGradient>
			<path fill="url(#SVGID_2_)" d="M384.21-28.135c1.696,0,3.073,0.478,4.126,1.435c1.056,0.957,1.582,1.993,1.582,3.109
				c0,1.113-0.17,1.99-0.51,2.617c-0.34,0.632-0.781,1.129-1.326,1.492c-0.545,0.362-1.328,0.641-2.346,0.835
				c-1.551,0.29-3.88,0.437-6.982,0.437c0.193,1.745,0.723,3.128,1.582,4.144c0.861,1.021,2.139,1.528,3.836,1.528
				s2.895-0.631,3.602-1.891c0.969,0.389,1.454,0.924,1.454,1.6c0,0.682-0.552,1.238-1.655,1.676
				c-1.104,0.434-2.335,0.651-3.691,0.651c-2.277,0-4.145-0.72-5.6-2.161c-1.455-1.443-2.181-3.613-2.181-6.508
				c0-2.896,0.804-5.117,2.416-6.654C380.13-27.369,382.03-28.135,384.21-28.135z M384.064-26.137c-1.452,0-2.696,0.497-3.726,1.49
				c-1.033,0.995-1.57,2.534-1.618,4.62c3.466,0,5.767-0.255,6.907-0.765c0.486-0.218,0.904-0.534,1.256-0.944
				c0.352-0.414,0.527-0.966,0.527-1.656c0-0.691-0.321-1.32-0.963-1.89C385.805-25.851,385.01-26.137,384.064-26.137z"/>
			
				<linearGradient id="SVGID_3_" gradientUnits="userSpaceOnUse" x1="-435.4048" y1="189.6621" x2="-435.3859" y2="184.9644" gradientTransform="matrix(4.8555 0 0 4.8555 2514.1326 -923.9399)">
				<stop  offset="0.0497" style="stop-color:#926528"/>
				<stop  offset="0.2817" style="stop-color:#A67027"/>
				<stop  offset="0.7547" style="stop-color:#DA8D24"/>
				<stop  offset="1" style="stop-color:#F79D22"/>
			</linearGradient>
			<path fill="url(#SVGID_3_)" d="M401.301-28.135c1.695,0,3.072,0.478,4.125,1.435c1.055,0.957,1.582,1.993,1.582,3.109
				c0,1.113-0.17,1.99-0.51,2.617c-0.34,0.632-0.781,1.129-1.326,1.492c-0.543,0.361-1.328,0.641-2.346,0.835
				c-1.553,0.29-3.881,0.437-6.982,0.437c0.195,1.745,0.721,3.128,1.584,4.144c0.861,1.021,2.139,1.528,3.836,1.528
				s2.896-0.631,3.602-1.891c0.969,0.389,1.451,0.924,1.451,1.6c0,0.682-0.549,1.238-1.654,1.676
				c-1.102,0.434-2.332,0.651-3.689,0.651c-2.281,0-4.146-0.72-5.6-2.161c-1.455-1.443-2.184-3.613-2.184-6.508
				c0-2.896,0.807-5.117,2.42-6.654C397.221-27.369,399.12-28.135,401.301-28.135z M401.155-26.137c-1.455,0-2.697,0.497-3.727,1.49
				c-1.033,0.995-1.572,2.534-1.621,4.62c3.469,0,5.771-0.255,6.91-0.765c0.484-0.218,0.904-0.534,1.254-0.944
				c0.352-0.414,0.529-0.966,0.529-1.656c0-0.691-0.32-1.32-0.965-1.89C402.893-25.851,402.1-26.137,401.155-26.137z"/>
		</g>
	</g>
</g>
<linearGradient id="SVGID_4_" gradientUnits="userSpaceOnUse" x1="-508.644" y1="206.0986" x2="-511.0695" y2="202.9528" gradientTransform="matrix(4.8555 0 0 4.8555 2514.1326 -923.9399)">
	<stop  offset="0.2666" style="stop-color:#926528"/>
	<stop  offset="0.4456" style="stop-color:#A67027"/>
	<stop  offset="0.8107" style="stop-color:#DA8D24"/>
	<stop  offset="1" style="stop-color:#F79D22"/>
</linearGradient>
<path fill="url(#SVGID_4_)" d="M18.096,66.922c0,0-2.299,10.878,7.212,11.331c0,0,20.551-17.121,20.288-31.023
	c0,0-21.759,17.555-24.108,5.67C21.488,52.9,19.752,56.129,18.096,66.922z"/>
<path d="M119.443,57.851c-0.072-0.135-0.136-0.279-0.216-0.409l-0.276-0.364c-0.095-0.119-0.189-0.251-0.294-0.355l-0.327-0.295
	L118,56.141c-0.117-0.09-0.238-0.153-0.354-0.23c-0.239-0.141-0.479-0.306-0.725-0.419c-1.974-0.899-3.968-1.077-5.91-1.165
	l-1.446,0.014c-0.48,0.003-0.973,0.013-1.432,0.046c-0.932,0.055-1.851,0.076-2.8,0.154c-1.891,0.136-3.774,0.308-5.646,0.59
	c-3.754,0.535-7.453,1.45-11.041,2.582c-3.587,1.136-7.099,2.431-10.596,3.75c-6.973,2.673-13.886,5.445-20.817,8.174
	c-1.739,0.69-3.46,1.354-5.205,2.064c-0.4,0.163-0.795,0.335-1.192,0.512c-0.021-0.164-0.046-0.326-0.046-0.49l-0.018-0.71
	c-0.009-0.231,0.022-0.472,0.032-0.709c0.013-0.24,0.031-0.476,0.078-0.718c0.035-0.236,0.058-0.476,0.107-0.713l0.027-0.132
	c0.851,0.223,1.733,0.354,2.621,0.395c1.035,0.06,2.071-0.03,3.088-0.213c1.028-0.16,2.019-0.477,3-0.809
	c0.477-0.196,0.969-0.377,1.436-0.596c0.464-0.226,0.941-0.446,1.391-0.678c0.918-0.472,1.832-0.949,2.741-1.433
	c1.815-0.971,3.623-1.958,5.412-2.974c1.795-1.015,3.567-2.062,5.33-3.125l2.626-1.626c0.863-0.564,1.74-1.11,2.595-1.687
	c0.852-0.588,1.718-1.142,2.552-1.754c0.84-0.605,1.687-1.196,2.496-1.847l1.228-0.95l1.185-1.01l0.597-0.504
	c0.195-0.173,0.378-0.359,0.566-0.541l1.093-1.049c1.631-1.404,3.158-2.882,4.635-4.432c1.467-1.551,2.867-3.174,4.155-4.892
	c1.29-1.714,2.478-3.527,3.42-5.486c0.947-1.951,1.677-4.087,1.712-6.37c-0.01-0.278,0.008-0.568-0.024-0.862
	c-0.028-0.282-0.063-0.555-0.108-0.826c-0.086-0.552-0.199-1.092-0.346-1.628c-0.294-1.073-0.703-2.132-1.336-3.11
	c-0.628-0.969-1.529-1.854-2.668-2.337c-0.563-0.245-1.171-0.376-1.763-0.43c-0.61-0.046-1.154-0.015-1.714,0.032
	c-2.228,0.209-4.351,0.872-6.341,1.769c-1.996,0.899-3.858,2.049-5.586,3.358c-0.896,0.685-1.664,1.376-2.48,2.076
	c-0.806,0.701-1.606,1.401-2.393,2.118c-1.581,1.428-3.135,2.882-4.662,4.364c-0.773,0.731-1.519,1.49-2.277,2.241
	s-1.5,1.514-2.233,2.283c-1.491,1.522-2.917,3.109-4.354,4.681l-2.097,2.417c-0.706,0.802-1.355,1.647-2.036,2.469l-1.013,1.241
	c-0.333,0.419-0.65,0.85-0.974,1.272c-0.645,0.849-1.299,1.694-1.937,2.553c-1.216,1.76-2.48,3.487-3.595,5.318
	c-1.179,1.769-2.168,3.659-3.217,5.505c-0.159,0.236-0.288,0.445-0.419,0.667c-0.14,0.242-0.277,0.477-0.404,0.724
	c-0.264,0.48-0.501,0.971-0.723,1.476c-0.118,0.247-0.214,0.505-0.319,0.758c-0.108,0.25-0.198,0.513-0.285,0.772
	c-0.095,0.258-0.187,0.521-0.258,0.787c-0.075,0.268-0.161,0.532-0.224,0.8l-0.073,0.321c-0.381-0.163-0.755-0.348-1.118-0.553
	l0.004-0.003l0.055-0.074l0.105-0.149l0.209-0.294l0.214-0.297l0.112-0.164l0.105-0.15l0.406-0.615
	c1.055-1.641,2.009-3.34,2.563-5.159c0.287-0.904,0.481-1.826,0.556-2.749c0.054-0.455,0.036-0.918,0.041-1.369
	c-0.041-0.449-0.041-0.899-0.133-1.337c-0.036-0.218-0.068-0.432-0.115-0.649c-0.055-0.218-0.107-0.431-0.163-0.645l-0.082-0.317
	l-0.102-0.291c-0.067-0.19-0.136-0.377-0.197-0.569c-0.102-0.3-0.21-0.437-0.31-0.632c-0.105-0.178-0.21-0.359-0.322-0.527
	c-0.224-0.34-0.461-0.664-0.702-0.974c-0.967-1.247-2.054-2.265-3.141-3.124c-1.095-0.849-2.208-1.526-3.272-2.067
	c-0.268-0.125-0.528-0.252-0.783-0.369c-0.263-0.132-0.532-0.233-0.785-0.322c-0.517-0.187-1.019-0.332-1.495-0.456
	c-1.916-0.485-3.478-0.521-4.519-0.472c-0.525,0.041-0.923,0.082-1.186,0.132c-0.267,0.046-0.404,0.063-0.404,0.063
	s0.137-0.009,0.404-0.03c0.268-0.033,0.674-0.041,1.186-0.041c1.037,0.022,2.563,0.199,4.396,0.781
	c0.456,0.15,0.933,0.323,1.415,0.533c0.247,0.104,0.486,0.208,0.718,0.344c0.247,0.137,0.495,0.278,0.754,0.419
	c0.686,0.41,1.395,0.874,2.101,1.409c0.01,0,0.015,0.01,0.024,0.014c-0.005,0.028-0.005,0.056-0.009,0.083
	c-0.015,0.287-0.087,0.713-0.155,1.246c-0.046,0.269-0.1,0.564-0.155,0.882c-0.065,0.318-0.145,0.658-0.223,1.023
	c-0.046,0.18-0.087,0.366-0.133,0.563c-0.055,0.186-0.112,0.38-0.173,0.585c-0.126,0.396-0.21,0.827-0.363,1.254
	c-0.155,0.432-0.31,0.878-0.474,1.34c-0.153,0.463-0.377,0.922-0.568,1.405c-0.365,0.978-0.904,1.937-1.381,2.959
	c-0.26,0.504-0.563,0.995-0.845,1.505c-0.296,0.5-0.553,1.025-0.9,1.514c-0.328,0.5-0.66,0.999-0.991,1.5
	c-0.308,0.519-0.68,0.995-1.049,1.472c-0.364,0.486-0.726,0.972-1.085,1.459L36.8,66.418l-0.296,0.343
	c-0.194,0.229-0.391,0.461-0.584,0.687c-0.782,0.901-1.5,1.842-2.32,2.647c-0.39,0.418-0.776,0.828-1.153,1.228
	c-0.387,0.4-0.728,0.822-1.119,1.172c-0.768,0.728-1.483,1.428-2.136,2.077c-0.332,0.327-0.645,0.645-0.954,0.932
	c-0.314,0.281-0.616,0.55-0.897,0.799c-0.563,0.5-1.045,0.954-1.444,1.328c-0.075,0.067-0.147,0.136-0.214,0.198
	c-1.138-0.09-2.223-0.376-3.174-0.927c-0.82-0.46-1.512-1.138-2.081-1.915c-0.554-0.786-0.986-1.7-1.245-2.64
	c-0.063-0.231-0.128-0.475-0.145-0.66l-0.111-0.827l-0.222-1.648c-0.041-0.537-0.041-1.049-0.069-1.573
	c-0.008-0.526-0.067-1.04-0.018-1.577c0.06-1.068,0.063-2.131,0.245-3.187c0.078-0.513,0.132-1.033,0.214-1.544
	c0-0.015,0.005-0.024,0.005-0.037c0.012-0.059,0.027-0.114,0.036-0.172c0.096-0.427,0.186-0.859,0.278-1.287
	c0.009-0.031,0.013-0.068,0.022-0.1c0-0.01,0.004-0.015,0.004-0.023c0.068-0.367,0.155-0.731,0.25-1.095
	c0.004-0.015,0.008-0.028,0.012-0.046c0.177-0.635,0.382-1.269,0.555-1.9c0.128-0.514,0.342-0.999,0.505-1.499
	c0.18-0.496,0.35-0.991,0.535-1.482c0.083-0.196,0.169-0.392,0.251-0.588c0.123-0.286,0.241-0.572,0.364-0.854
	c0.21-0.477,0.396-0.964,0.637-1.424c0.473-0.926,0.887-1.871,1.409-2.758c1.973-3.591,4.222-6.891,6.545-9.877
	c2.332-2.981,4.708-5.672,6.999-8.073c4.597-4.787,8.783-8.446,11.765-10.932c2.626-2.183,4.339-3.456,4.714-3.738
	c-0.169,0.101-0.601,0.375-1.263,0.811c-0.873,0.578-2.151,1.417-3.729,2.569c-1.577,1.15-3.473,2.572-5.568,4.305
	c-2.104,1.722-4.428,3.736-6.841,6.063c-2.419,2.327-4.944,4.953-7.4,7.932c-2.458,2.973-4.881,6.278-6.973,9.968
	c-2.09,3.682-3.927,7.741-4.913,12.153c-0.117,0.551-0.241,1.1-0.363,1.655c-0.091,0.56-0.165,1.122-0.247,1.687
	c-0.195,1.122-0.212,2.273-0.286,3.418c-0.055,0.564,0,1.159,0.014,1.746c0.024,0.583,0.032,1.183,0.072,1.75l0.214,1.654
	l0.104,0.829c0.046,0.37,0.125,0.669,0.205,0.973c0.339,1.195,0.877,2.322,1.608,3.345c0.743,1.009,1.682,1.919,2.796,2.537
	c1.107,0.627,2.335,0.995,3.549,1.143c1.219,0.141,2.423,0.1,3.582-0.074c2.319-0.355,4.459-1.142,6.464-2.059
	c0.505-0.217,0.995-0.477,1.491-0.728l0.735-0.376l0.692-0.393l0.691-0.386l0.171-0.1l0.087-0.046l0.087-0.055l0.046-0.027
	c0.121-0.084,0.241-0.16,0.351-0.238c0.455-0.3,0.886-0.623,1.316-0.939c1.719-1.284,3.28-2.668,4.719-4.172
	c0.353-0.387,0.708-0.765,1.064-1.148c0.308-0.381,0.622-0.767,0.93-1.145l0.458-0.572l0.033-0.032l0.046-0.059
	c0.363,0.217,0.737,0.412,1.119,0.59l-0.1,0.441c-0.06,0.273-0.09,0.551-0.136,0.827c-0.05,0.277-0.078,0.56-0.09,0.841
	c-0.014,0.282-0.056,0.563-0.046,0.85l0.017,0.856c0,0.284,0.056,0.572,0.088,0.856c0.018,0.16,0.037,0.319,0.063,0.478
	c-0.654,0.335-1.295,0.694-1.927,1.076c-0.827,0.48-1.609,1.041-2.395,1.587c-0.755,0.591-1.532,1.156-2.237,1.801
	c-1.459,1.239-2.764,2.635-4.026,4.049c-2.478,2.879-4.605,6.014-6.523,9.251l-1.382,2.46c-0.473,0.808-0.874,1.656-1.314,2.49
	l-0.645,1.249l-0.314,0.614l-0.318,0.644c-0.408,0.849-0.801,1.708-1.173,2.569c-1.481,3.465-2.7,7.047-3.521,10.738
	c-0.81,3.682-1.237,7.512-0.724,11.326c0.26,1.896,0.773,3.783,1.619,5.525c0.107,0.215,0.21,0.436,0.322,0.648l0.377,0.627
	l0.187,0.309l0.096,0.156c0.067,0.102,0.071,0.102,0.125,0.176c0.183,0.224,0.359,0.396,0.545,0.576
	c0.752,0.679,1.61,1.223,2.547,1.579c1.872,0.72,3.919,0.717,5.801,0.339l0.708-0.152c0.236-0.05,0.473-0.1,0.695-0.187l1.36-0.464
	c0.445-0.174,0.872-0.39,1.304-0.584c0.437-0.195,0.873-0.385,1.273-0.635c0.817-0.477,1.661-0.913,2.423-1.473l1.167-0.801
	c0.387-0.254,0.782-0.555,1.136-0.879c1.428-1.271,2.633-2.734,3.718-4.273c1.033-1.477,1.937-3.021,2.747-4.621
	c0.482-0.957,0.926-1.93,1.345-2.919c0.346-0.819,0.668-1.649,0.973-2.485l0.004-0.014l0.004-0.006
	c0.241-0.949,0.419-1.892,0.578-2.846c0.16-0.955,0.281-1.908,0.372-2.873c0.185-1.918,0.231-3.854,0.11-5.776
	c-0.038-0.483-0.069-0.963-0.128-1.438c-0.048-0.483-0.126-0.961-0.2-1.434c-0.085-0.478-0.167-0.95-0.282-1.419
	c-0.105-0.474-0.241-0.936-0.368-1.399c-0.148-0.454-0.291-0.919-0.472-1.365c-0.163-0.454-0.375-0.885-0.57-1.325
	c-0.222-0.428-0.43-0.861-0.689-1.266c-0.235-0.422-0.528-0.805-0.794-1.199c0.257,0.4,0.535,0.791,0.762,1.219
	c0.249,0.41,0.444,0.845,0.659,1.277c0.182,0.44,0.381,0.875,0.532,1.332c0.171,0.442,0.295,0.908,0.437,1.369
	c0.115,0.464,0.241,0.926,0.327,1.393c0.105,0.471,0.174,0.943,0.25,1.414c0.059,0.475,0.124,0.947,0.161,1.424
	c0.048,0.477,0.067,0.955,0.09,1.433c0.071,1.907-0.02,3.819-0.231,5.722c-0.11,0.949-0.247,1.896-0.42,2.83
	c-0.172,0.937-0.372,1.879-0.622,2.789c-0.309,0.799-0.637,1.594-0.984,2.381c-0.483-0.26-0.987-0.555-1.47-0.845
	c-0.594-0.36-1.173-0.737-1.751-1.123c-1.145-0.784-2.263-1.604-3.335-2.491c-0.532-0.438-1.061-0.893-1.572-1.355l-0.764-0.701
	l-0.737-0.734c-0.482-0.488-0.968-0.991-1.414-1.512c-0.463-0.519-0.9-1.049-1.327-1.592l-0.622-0.826l-0.587-0.855
	c-0.2-0.281-0.372-0.582-0.556-0.878c-0.182-0.292-0.358-0.591-0.518-0.895c-0.164-0.3-0.34-0.602-0.496-0.911l-0.448-0.935
	c-0.155-0.31-0.269-0.638-0.405-0.955l-0.195-0.481l-0.165-0.497c-0.107-0.325-0.239-0.653-0.331-0.985l-0.277-1.008
	c-0.1-0.336-0.146-0.682-0.218-1.028c-0.074-0.341-0.146-0.688-0.186-1.032l-0.146-1.051l-0.073-1.053l-0.037-0.533L33.68,90.9
	v-0.029c1.769-2.83,3.7-5.541,5.881-8.023c1.235-1.346,2.497-2.664,3.895-3.823c0.674-0.61,1.415-1.131,2.133-1.681
	c0.75-0.505,1.49-1.023,2.277-1.469c0.541-0.318,1.089-0.623,1.649-0.909l0.073,0.041c1.458,0.829,2.899,1.52,4.385,2.191
	c1.479,0.672,2.986,1.269,4.51,1.836c1.532,0.539,3.072,1.063,4.641,1.488L64.3,80.85l1.188,0.282
	c0.789,0.199,1.59,0.359,2.389,0.509c0.8,0.172,1.609,0.277,2.419,0.401c0.804,0.136,1.627,0.187,2.441,0.271
	c0.805,0.096,1.649,0.121,2.468,0.137c0.818,0.016,1.633-0.004,2.446-0.021c0.814-0.042,1.626-0.066,2.437-0.14
	c0.813-0.047,1.623-0.131,2.433-0.215c1.615-0.179,3.217-0.415,4.817-0.711c0.8-0.127,1.591-0.308,2.387-0.477l1.19-0.265
	l1.179-0.306c1.581-0.382,3.127-0.883,4.676-1.372l2.296-0.824c0.769-0.268,1.506-0.609,2.259-0.912l1.128-0.465l1.103-0.523
	l2.172-1.041c1.51-0.764,2.896-1.595,4.264-2.519c1.359-0.92,2.673-1.92,3.911-3.03c1.222-1.119,2.377-2.337,3.396-3.691
	c0.983-1.377,1.821-2.896,2.377-4.554c0.026-0.076,0.039-0.137,0.059-0.193c0.023-0.076,0.046-0.153,0.06-0.226
	c0.028-0.149,0.067-0.3,0.083-0.446c0.044-0.3,0.04-0.6,0.04-0.904C119.864,59.028,119.747,58.401,119.443,57.851z M51.148,68.16
	c0.055-0.237,0.132-0.468,0.196-0.704c0.06-0.237,0.14-0.469,0.222-0.705c0.079-0.231,0.16-0.464,0.254-0.691
	c0.091-0.231,0.177-0.463,0.282-0.685c0.196-0.456,0.409-0.902,0.646-1.338c0.112-0.222,0.236-0.436,0.359-0.648
	c0.118-0.205,0.253-0.429,0.365-0.601l0.032-0.041l0.037-0.073c1.027-1.82,1.977-3.679,3.137-5.433
	c1.073-1.795,2.304-3.499,3.491-5.227c0.618-0.851,1.259-1.684,1.887-2.528c0.317-0.419,0.627-0.841,0.949-1.255l0.991-1.226
	c0.668-0.814,1.305-1.651,1.995-2.445l2.055-2.399c1.399-1.574,2.794-3.155,4.253-4.677c0.718-0.769,1.442-1.537,2.188-2.283
	c0.736-0.749,1.468-1.514,2.228-2.245c1.495-1.487,3.02-2.945,4.568-4.372c0.773-0.723,1.56-1.423,2.341-2.128
	c0.785-0.687,1.592-1.417,2.373-2.026c0.9-0.7,1.83-1.35,2.805-1.933c0.022,0.242,0.05,0.533,0.082,0.869
	c0.01,0.273,0.021,0.582,0.035,0.914c0.015,0.332,0.043,0.687,0.029,1.073c-0.011,0.381-0.005,0.787-0.021,1.208
	c-0.026,0.428-0.052,0.874-0.078,1.341c-0.087,0.927-0.21,1.927-0.389,2.978c-0.181,1.045-0.42,2.14-0.702,3.268
	c-0.155,0.559-0.313,1.127-0.473,1.701c-0.176,0.571-0.363,1.145-0.545,1.727c-0.404,1.154-0.813,2.327-1.29,3.472
	c-0.227,0.583-0.469,1.156-0.718,1.725c-0.247,0.572-0.504,1.132-0.754,1.689c-0.265,0.559-0.523,1.109-0.783,1.655
	c-0.27,0.541-0.532,1.076-0.796,1.6c-0.532,1.051-1.058,2.06-1.576,3.009c-0.513,0.951-1.01,1.846-1.478,2.673
	c-0.473,0.823-0.909,1.576-1.297,2.245c-0.395,0.664-0.741,1.244-1.021,1.721c-0.197,0.327-0.365,0.61-0.501,0.832
	c0,0.004-0.005,0.004-0.005,0.004l-0.831,0.54c-1.742,1.093-3.491,2.169-5.261,3.209c-1.769,1.049-3.554,2.065-5.345,3.068
	c-0.899,0.494-1.801,0.996-2.705,1.476c-0.454,0.247-0.909,0.465-1.363,0.702c-0.459,0.222-0.932,0.413-1.402,0.618
	c-0.953,0.351-1.922,0.687-2.932,0.869c-0.994,0.198-2.018,0.317-3.041,0.285c-0.877-0.013-1.749-0.127-2.6-0.328L51.148,68.16z
	 M46.512,66.392v-0.01h0.004C46.512,66.387,46.512,66.392,46.512,66.392z M33.694,111.76c0.232,0.236,0.448,0.486,0.695,0.705
	c0.247,0.218,0.482,0.449,0.728,0.667l0.759,0.64c0.522,0.408,1.04,0.82,1.598,1.187c0.542,0.384,1.12,0.716,1.691,1.058
	c0.596,0.297,1.179,0.627,1.796,0.881c0.603,0.293,1.234,0.502,1.862,0.733c0.314,0.116,0.637,0.202,0.96,0.298
	c0.318,0.1,0.636,0.195,0.964,0.268l0.976,0.225c0.329,0.068,0.66,0.113,0.987,0.165c0.659,0.129,1.324,0.174,1.987,0.242
	c0.357,0.036,0.723,0.05,1.081,0.062c-0.786,1.463-1.659,2.872-2.636,4.211c-1.086,1.488-2.296,2.896-3.672,4.074
	c-0.346,0.297-0.692,0.559-1.092,0.808l-1.148,0.761c-0.314,0.221-0.633,0.418-0.965,0.606c0,0,0-0.005-0.002,0
	c-0.136-0.026-0.296-0.055-0.47-0.081c-0.356-0.09-0.785-0.188-1.263-0.318c-0.232-0.078-0.48-0.158-0.746-0.248
	c-0.26-0.084-0.529-0.208-0.801-0.315c-0.281-0.1-0.553-0.255-0.84-0.389c-0.291-0.136-0.569-0.31-0.86-0.481
	c-0.581-0.34-1.149-0.76-1.724-1.215c-0.287-0.234-0.559-0.484-0.844-0.726c-0.264-0.276-0.551-0.524-0.818-0.814
	c-0.264-0.28-0.532-0.56-0.786-0.865c-0.264-0.292-0.508-0.599-0.755-0.922c-0.5-0.612-0.953-1.271-1.404-1.925
	c-0.432-0.663-0.86-1.32-1.244-1.977c-0.787-1.313-1.47-2.576-2.042-3.684c-0.579-1.097-1.047-2.039-1.373-2.703
	c-0.009-0.019-0.019-0.035-0.029-0.055c0.041-0.211,0.09-0.416,0.136-0.617c0.804-3.415,1.958-6.762,3.367-9.992
	c0.078,0.238,0.16,0.472,0.245,0.708c0.227,0.604,0.483,1.197,0.752,1.782c0.536,1.185,1.181,2.311,1.881,3.404
	c0.356,0.549,0.731,1.081,1.13,1.602c0.396,0.518,0.811,1.026,1.248,1.518C33.244,111.283,33.459,111.527,33.694,111.76z
	 M109.811,59.869c-0.238,0.41-0.588,0.817-0.968,1.218c-0.378,0.404-0.81,0.81-1.258,1.209c-0.926,0.795-1.965,1.568-3.061,2.361
	c-1.095,0.785-2.265,1.562-3.454,2.349c-1.196,0.773-2.419,1.559-3.659,2.324c-1.231,0.777-2.478,1.531-3.701,2.28
	c-1.227,0.743-2.437,1.474-3.609,2.184c-1.173,0.712-2.305,1.399-3.376,2.054c-1.082,0.641-2.092,1.272-3.028,1.847
	c-1.538,0.936-2.855,1.763-3.877,2.412h-0.002c-0.747,0.05-1.487,0.086-2.231,0.121c-0.782,0.021-1.565,0.034-2.342,0.026
	c-0.781-0.013-1.537-0.03-2.318-0.124c-0.773-0.081-1.55-0.127-2.322-0.258c-0.768-0.112-1.545-0.209-2.31-0.372
	c-0.767-0.146-1.537-0.292-2.295-0.485l-1.146-0.268l-1.131-0.313c-1.515-0.411-3.005-0.911-4.486-1.432
	c-1.474-0.547-2.937-1.119-4.373-1.761c-0.982-0.436-1.972-0.899-2.929-1.391c0.272-0.119,0.546-0.236,0.818-0.346
	c1.71-0.688,3.469-1.349,5.201-2.027c6.95-2.691,13.882-5.428,20.841-8.044c3.487-1.292,6.973-2.555,10.498-3.646
	c3.523-1.09,7.083-1.971,10.706-2.478c1.809-0.267,3.645-0.43,5.468-0.559c0.44-0.036,0.892-0.063,1.343-0.086
	c0.004,0,0.004,0,0.004,0c0.274,0.069,0.6,0.151,0.968,0.26c0.591,0.177,1.354,0.436,1.937,0.932
	c0.286,0.244,0.474,0.549,0.474,0.88C110.198,59.059,110.06,59.464,109.811,59.869z"/>
<linearGradient id="SVGID_5_" gradientUnits="userSpaceOnUse" x1="-507.3813" y1="217.668" x2="-510.4706" y2="214.1341" gradientTransform="matrix(4.8555 0 0 4.8555 2514.1326 -923.9399)">
	<stop  offset="0.2666" style="stop-color:#926528"/>
	<stop  offset="0.4456" style="stop-color:#A67027"/>
	<stop  offset="0.8107" style="stop-color:#DA8D24"/>
	<stop  offset="1" style="stop-color:#F79D22"/>
</linearGradient>
<path fill="url(#SVGID_5_)" d="M49.779,118.889c-0.786,1.463-1.659,2.872-2.636,4.211c-1.086,1.488-2.296,2.896-3.672,4.074
	c-0.346,0.297-0.692,0.559-1.092,0.808l-1.148,0.761c-0.314,0.221-0.633,0.418-0.965,0.606c0,0,0-0.005-0.002,0
	c-0.136-0.026-0.296-0.055-0.47-0.081c-0.356-0.09-0.785-0.188-1.263-0.318c-0.232-0.078-0.48-0.158-0.746-0.248
	c-0.26-0.084-0.529-0.208-0.801-0.315c-0.281-0.1-0.553-0.255-0.84-0.389c-0.291-0.136-0.569-0.31-0.86-0.481
	c-0.581-0.34-1.149-0.76-1.723-1.215c-0.288-0.234-0.56-0.484-0.845-0.726c-0.264-0.276-0.551-0.524-0.818-0.814
	c-0.264-0.28-0.532-0.56-0.786-0.865c-0.264-0.292-0.508-0.599-0.755-0.922c-0.5-0.612-0.953-1.271-1.404-1.925
	c-0.432-0.663-0.86-1.32-1.244-1.977c-0.787-1.313-1.47-2.576-2.042-3.684c-0.578-1.097-1.047-2.039-1.373-2.703
	c-0.009-0.019-0.019-0.035-0.029-0.055c0.041-0.211,0.09-0.416,0.136-0.617c0.804-3.415,1.958-6.762,3.367-9.992
	c0.078,0.238,0.16,0.472,0.245,0.711c0.227,0.602,0.483,1.194,0.752,1.779c0.536,1.185,1.181,2.311,1.881,3.404
	c0.356,0.549,0.731,1.081,1.13,1.602c0.396,0.518,0.811,1.026,1.248,1.518c0.218,0.246,0.435,0.492,0.667,0.721
	c0.232,0.236,0.449,0.488,0.695,0.704c0.245,0.218,0.482,0.45,0.728,0.669l0.76,0.641c0.522,0.406,1.039,0.818,1.598,1.186
	c0.542,0.384,1.119,0.714,1.692,1.057c0.595,0.301,1.179,0.629,1.795,0.881c0.603,0.291,1.235,0.504,1.862,0.736
	c0.315,0.113,0.637,0.199,0.961,0.295c0.317,0.1,0.635,0.195,0.963,0.268l0.976,0.224c0.328,0.069,0.66,0.114,0.987,0.169
	c0.659,0.127,1.324,0.174,1.987,0.24C49.058,118.863,49.421,118.877,49.779,118.889z"/>
<radialGradient id="SVGID_6_" cx="-458.6548" cy="-1156.6787" r="10.1111" gradientTransform="matrix(3.6619 0 0 0.5394 1716.5706 770.7375)" gradientUnits="userSpaceOnUse">
	<stop  offset="0" style="stop-color:#221F1F;stop-opacity:0.16"/>
	<stop  offset="0.1276" style="stop-color:#362B1F;stop-opacity:0.1396"/>
	<stop  offset="0.3894" style="stop-color:#6A4A20;stop-opacity:0.0977"/>
	<stop  offset="0.7589" style="stop-color:#BD7B21;stop-opacity:0.0386"/>
	<stop  offset="1" style="stop-color:#F79D22;stop-opacity:0"/>
</radialGradient>
<ellipse fill="url(#SVGID_6_)" cx="37.022" cy="146.825" rx="37.022" ry="5.455"/>
<ellipse fill="none" cx="42.066" cy="5.455" rx="37.025" ry="5.455"/>
<path fill="none" stroke="#000000" stroke-miterlimit="10" d="M17.072,65.656"/>
<path fill="none" stroke="#000000" stroke-miterlimit="10" d="M-0.199,65.656"/>
</svg>
