<?xml version="1.0" encoding="utf-8"?>
<!-- Generator: Adobe Illustrator 16.0.0, SVG Export Plug-In . SVG Version: 6.00 Build 0)  -->
<!DOCTYPE svg PUBLIC "-//W3C//DTD SVG 1.1//EN" "http://www.w3.org/Graphics/SVG/1.1/DTD/svg11.dtd">
<svg version="1.1" id="Layer_1" xmlns="http://www.w3.org/2000/svg" xmlns:xlink="http://www.w3.org/1999/xlink" x="0px" y="0px"
	 viewBox="0 0 612 612" enable-background="new 0 0 612 612" xml:space="preserve">
<path d="M271.092,311.295c85.672-0.004,116.5-85.783,124.569-156.25C405.604,68.243,364.555,2.91,271.092,2.91
	c-93.45,0-134.518,65.324-124.57,152.135C154.602,225.512,185.415,311.303,271.092,311.295z"/>
<path d="M458.425,347.007c2.76,0,5.498,0.079,8.216,0.229c-4.079-5.817-8.796-10.949-14.315-15.071
	c-16.469-12.289-37.786-16.322-56.629-23.724c-9.181-3.604-17.398-7.185-25.111-11.259c-26.026,28.544-59.976,43.48-99.503,43.484
	c-39.514,0-73.46-14.932-99.487-43.484c-7.714,4.078-15.934,7.656-25.106,11.259c-18.849,7.401-40.169,11.435-56.632,23.724
	c-28.469,21.246-35.828,69.056-41.607,101.663c-4.769,26.918-7.973,54.386-8.912,81.731c-0.726,21.182,9.731,24.153,27.449,30.543
	c22.187,7.999,45.093,13.938,68.151,18.81c44.533,9.405,90.44,16.63,136.152,16.952c22.147-0.156,44.341-1.945,66.4-4.804
	c-16.329-23.669-25.914-52.34-25.914-83.21C311.574,412.886,377.452,347.007,458.425,347.007z"/>
<path d="M458.425,376.379c-64.896,0-117.479,52.583-117.479,117.481c0,64.891,52.584,117.478,117.479,117.478
	c64.895,0,117.478-52.587,117.478-117.478S523.319,376.379,458.425,376.379z M519.993,447.464l-66.544,106.853
	c-2.319,3.685-6.296,6.046-10.655,6.224c-0.216,0-0.397,0.035-0.606,0.035c-4.15,0-8.092-1.967-10.593-5.29l-34.062-44.968
	c-4.429-5.83-3.291-14.165,2.579-18.6c5.868-4.435,14.169-3.291,18.598,2.579l22.401,29.581l56.341-90.47
	c3.865-6.22,12.054-8.118,18.313-4.249C521.992,433.046,523.892,441.238,519.993,447.464z"/>
</svg>
