<?xml version="1.0" encoding="utf-8"?>
<!-- Generator: Adobe Illustrator 16.0.0, SVG Export Plug-In . SVG Version: 6.00 Build 0)  -->
<!DOCTYPE svg PUBLIC "-//W3C//DTD SVG 1.1//EN" "http://www.w3.org/Graphics/SVG/1.1/DTD/svg11.dtd">
<svg version="1.1" id="Capa_1" xmlns="http://www.w3.org/2000/svg" xmlns:xlink="http://www.w3.org/1999/xlink" x="0px" y="0px"
	 width="257.95px" height="170.08px" viewBox="0 0 257.95 170.08" enable-background="new 0 0 257.95 170.08" xml:space="preserve">
<path d="M118.768,86.206c23.949-0.001,32.566-23.98,34.822-43.678C156.37,18.263,144.894,0,118.768,0
	C92.645,0,81.165,18.261,83.946,42.528C86.204,62.226,94.818,86.208,118.768,86.206z"/>
<path d="M171.135,96.188c0.771,0,1.537,0.023,2.297,0.065c-1.14-1.626-2.459-3.06-4.002-4.213
	c-4.603-3.435-10.563-4.562-15.831-6.632c-2.565-1.007-4.862-2.008-7.018-3.147c-7.276,7.979-16.767,12.154-27.816,12.155
	c-11.046,0-20.535-4.174-27.811-12.155c-2.156,1.14-4.454,2.14-7.018,3.147c-5.269,2.07-11.229,3.197-15.831,6.632
	c-7.958,5.94-10.015,19.304-11.631,28.419c-1.333,7.525-2.229,15.203-2.491,22.847c-0.203,5.921,2.72,6.751,7.673,8.538
	c6.202,2.236,12.605,3.896,19.051,5.258c12.449,2.629,25.282,4.649,38.06,4.739c6.191-0.044,12.395-0.544,18.562-1.343
	c-4.566-6.616-7.245-14.631-7.245-23.26C130.085,114.604,148.5,96.188,171.135,96.188z"/>
<path d="M171.405,104.4c-18.29,0-33.109,14.819-33.109,33.109c0,18.28,14.819,33.11,33.109,33.11c18.28,0,33.11-14.83,33.11-33.11
	C204.515,119.22,189.685,104.4,171.405,104.4z M186.505,126.13l-16.32,26.21c-0.57,0.91-1.55,1.48-2.62,1.53h-0.149
	c-1.021,0-1.98-0.47-2.601-1.29l-8.35-11.03c-1.09-1.439-0.8-3.479,0.63-4.569c1.439-1.091,3.479-0.801,4.57,0.63l5.489,7.26
	l13.82-22.19c0.95-1.529,2.96-1.989,4.49-1.04C186.995,122.59,187.456,124.6,186.505,126.13z"/>
</svg>
